<?xml version="1.0" encoding="UTF-8"?>
<svg xmlns="http://www.w3.org/2000/svg" viewBox="0 0 2242 2242">
  <defs>
    <style>
      .cls-1 {
        fill: #fff;
      }
    </style>
  </defs>
  <g id="Layer_2">
    <rect class="cls-1" width="2242" height="2242"/>
  </g>
  <g id="Layer_3">
    <path d="M610.2,1436.71c252.33,0,456.89-204.56,456.89-456.89h-456.89v456.89Z"/>
    <path d="M1067.09,979.82h282.36c0-408.27-330.97-739.25-739.25-739.25v282.36c252.33,0,456.89,204.56,456.89,456.89Z"/>
    <path d="M1299.49,1733.83c32.24,82.98,49.96,173.22,49.96,267.59h282.36c0-186.08-49.76-360.53-136.69-510.8-52.55,90.84-118.68,172.83-195.63,243.21h0Z"/>
    <path d="M1349.45,979.82h0c0,408.27-330.97,739.25-739.25,739.25v282.36c564.21,0,1021.6-457.39,1021.6-1021.6h-282.36Z"/>
  </g>
</svg>